<?xml version="1.0" standalone="no"?>
<!DOCTYPE svg PUBLIC "-//W3C//DTD SVG 20010904//EN"
 "http://www.w3.org/TR/2001/REC-SVG-20010904/DTD/svg10.dtd">
<svg version="1.0" xmlns="http://www.w3.org/2000/svg"
 width="167.000000pt" height="214.000000pt" viewBox="0 0 167.000000 214.000000"
 preserveAspectRatio="xMidYMid meet">

<g transform="translate(0.000000,214.000000) scale(0.100000,-0.100000)"
fill="#000000" stroke="none">
<path d="M278 1877 l262 -262 -265 -265 c-146 -146 -265 -267 -265 -270 0 -3
119 -125 265 -270 l264 -265 -264 -265 c-146 -146 -265 -268 -265 -273 0 -4
82 -7 183 -7 l182 0 270 270 270 270 -268 267 -267 268 267 267 268 268 -265
265 -265 265 -185 0 -185 0 263 -263z"/>
<path d="M1019 1882 c144 -143 261 -263 261 -268 0 -5 -119 -128 -265 -274
l-265 -265 267 -267 268 -268 -270 -270 -270 -270 186 0 186 0 274 270 274
269 -270 271 -270 270 268 268 267 267 -263 263 -262 262 -189 0 -188 0 261
-258z"/>
</g>
</svg>
